<svg xmlns="http://www.w3.org/2000/svg" xmlns:svg="http://www.w3.org/2000/svg" id="svg8" width="22" height="22" version="1.1" viewBox="0 0 5.821 5.821"><defs id="defs2"><marker style="overflow:visible" id="DotL" orient="auto" refX="0" refY="0"><path transform="scale(0.8) translate(7.4, 1)" style="fill-rule:evenodd;stroke:none;stroke-width:1pt;stroke-opacity:1;fill:#000;fill-opacity:1" id="path4057" d="M -2.5,-1.0 C -2.5,1.7600000 -4.7400000,4.0 -7.5,4.0 C -10.260000,4.0 -12.5,1.7600000 -12.5,-1.0 C -12.5,-3.7600000 -10.260000,-6.0 -7.5,-6.0 C -4.7400000,-6.0 -2.5,-3.7600000 -2.5,-1.0 z"/></marker><marker style="overflow:visible" id="marker4414" orient="auto" refX="0" refY="0"><path transform="scale(0.8)" style="fill-rule:evenodd;stroke:none;stroke-width:1pt;stroke-opacity:1;fill:#000;fill-opacity:1" id="path4412" d="M -5.0,-5.0 L -5.0,5.0 L 5.0,5.0 L 5.0,-5.0 L -5.0,-5.0 z"/></marker><marker style="overflow:visible" id="marker4338" orient="auto" refX="0" refY="0"><path transform="scale(0.8)" style="fill-rule:evenodd;stroke:none;stroke-width:1pt;stroke-opacity:1;fill:#000;fill-opacity:1" id="path4336" d="M -5.0,-5.0 L -5.0,5.0 L 5.0,5.0 L 5.0,-5.0 L -5.0,-5.0 z"/></marker><marker style="overflow:visible" id="SquareL" orient="auto" refX="0" refY="0"><path transform="scale(0.8)" style="fill-rule:evenodd;stroke:none;stroke-width:1pt;stroke-opacity:1;fill:#000;fill-opacity:1" id="path4066" d="M -5.0,-5.0 L -5.0,5.0 L 5.0,5.0 L 5.0,-5.0 L -5.0,-5.0 z"/></marker><marker style="overflow:visible" id="DotS" orient="auto" refX="0" refY="0"><path transform="scale(0.2) translate(7.4, 1)" style="fill-rule:evenodd;stroke:none;stroke-width:1pt;stroke-opacity:1;fill:#000;fill-opacity:1" id="path4063" d="M -2.5,-1.0 C -2.5,1.7600000 -4.7400000,4.0 -7.5,4.0 C -10.260000,4.0 -12.5,1.7600000 -12.5,-1.0 C -12.5,-3.7600000 -10.260000,-6.0 -7.5,-6.0 C -4.7400000,-6.0 -2.5,-3.7600000 -2.5,-1.0 z"/></marker><marker style="overflow:visible" id="Arrow1Lstart" orient="auto" refX="0" refY="0"><path transform="scale(0.8) translate(12.5,0)" style="fill-rule:evenodd;stroke:none;stroke-width:1pt;stroke-opacity:1;fill:#000;fill-opacity:1" id="path3996" d="M 0.0,0.0 L 5.0,-5.0 L -12.5,0.0 L 5.0,5.0 L 0.0,0.0 z"/></marker></defs><metadata id="metadata5"/><g id="layer1"><path id="path4907" style="fill:#000;fill-opacity:1;stroke-width:.158331;stroke-linecap:round;stroke-miterlimit:4;stroke-dasharray:none;paint-order:fill markers stroke" d="M 2.9098712,0.66145835 A 2.2491762,2.2491762 0 0 0 0.66145835,2.9104166 2.2491762,2.2491762 0 0 0 2.9104166,5.1593748 2.2491762,2.2491762 0 0 0 5.1593748,2.9104166 2.2491762,2.2491762 0 0 0 2.9104166,0.66145835 a 2.2491762,2.2491762 0 0 1 -5.454e-4,0 z m -0.00764,1.25784575 a 0.99101081,0.99101081 0 0 1 0.00818,0 0.99101081,0.99101081 0 0 1 0.991118,0.9911125 A 0.99101081,0.99101081 0 0 1 2.9104166,3.9015292 0.99101081,0.99101081 0 0 1 1.9193041,2.9104166 0.99101081,0.99101081 0 0 1 2.9022346,1.9193041 Z"/><path style="fill:#000;stroke:#000;stroke-width:.165;stroke-linecap:butt;stroke-linejoin:miter;stroke-miterlimit:4;stroke-dasharray:none;stroke-opacity:1;fill-opacity:1" id="path4918" d="m 2.3812501,0.92604164 0.2645833,-0.6614583 h 0.5291667 l 0.2645833,0.6614583 z"/><path style="fill:#000;stroke:#000;stroke-width:.165;stroke-linecap:butt;stroke-linejoin:miter;stroke-miterlimit:4;stroke-dasharray:none;stroke-opacity:1;fill-opacity:1" id="path4918-1" d="M 3.9753982,1.074383 4.6302085,0.79375002 5.0043858,1.1679273 4.7237529,1.8227376 Z"/><path style="fill:#000;stroke:#000;stroke-width:.165;stroke-linecap:butt;stroke-linejoin:miter;stroke-miterlimit:4;stroke-dasharray:none;stroke-opacity:1;fill-opacity:1" id="path4918-1-2" d="M 4.8947918,2.3812502 5.5562501,2.6458335 V 3.1750001 L 4.8947918,3.4395835 Z"/><path style="fill:#000;stroke:#000;stroke-width:.165;stroke-linecap:butt;stroke-linejoin:miter;stroke-miterlimit:4;stroke-dasharray:none;stroke-opacity:1;fill-opacity:1" id="path4918-1-2-7" d="M 4.7237527,3.9980959 5.0043857,4.6529062 4.6302084,5.0270835 3.975398,4.7464506 Z"/><path style="fill:#000;stroke:#000;stroke-width:.165;stroke-linecap:butt;stroke-linejoin:miter;stroke-miterlimit:4;stroke-dasharray:none;stroke-opacity:1;fill-opacity:1" id="path4918-1-2-7-0" d="M 3.4395834,4.8947918 3.1750001,5.5562501 H 2.6458335 L 2.38125,4.8947918 Z"/><path style="fill:#000;stroke:#000;stroke-width:.165;stroke-linecap:butt;stroke-linejoin:miter;stroke-miterlimit:4;stroke-dasharray:none;stroke-opacity:1;fill-opacity:1" id="path4918-1-2-7-0-9" d="M 1.8454353,4.7464505 1.190625,5.0270835 0.81644776,4.6529062 1.0970806,3.9980958 Z"/><path style="fill:#000;stroke:#000;stroke-width:.165;stroke-linecap:butt;stroke-linejoin:miter;stroke-miterlimit:4;stroke-dasharray:none;stroke-opacity:1;fill-opacity:1" id="path4918-1-2-7-0-9-3" d="M 0.92604174,3.4395832 0.26458334,3.175 V 2.6458334 l 0.6614583,-0.2645835 z"/><path style="fill:#000;stroke:#000;stroke-width:.165;stroke-linecap:butt;stroke-linejoin:miter;stroke-miterlimit:4;stroke-dasharray:none;stroke-opacity:1;fill-opacity:1" id="path4918-1-2-7-0-9-3-6" d="M 1.0970809,1.8227376 0.81644781,1.1679273 1.190625,0.79375002 1.8454355,1.0743829 Z"/></g></svg>