<svg xmlns="http://www.w3.org/2000/svg" xmlns:svg="http://www.w3.org/2000/svg" id="svg8" width="22" height="22" version="1.1" viewBox="0 0 5.821 5.821"><metadata id="metadata5"/><g id="layer1"><ellipse style="fill:none;stroke:#000;stroke-width:.17;stroke-linecap:round;stroke-linejoin:round;paint-order:fill markers stroke;stroke-miterlimit:4;stroke-dasharray:none" id="path8253" cx="2.926" cy="3.111" rx="2.381" ry=".492"/><path style="fill:none;stroke:#000;stroke-width:.17;stroke-linecap:round;stroke-linejoin:round;stroke-miterlimit:4;stroke-dasharray:none;paint-order:fill markers stroke" id="path8253-2" d="M 5.2791348,4.9587921 A 2.380564,0.49168354 0 0 1 2.7667407,5.3724627 2.380564,0.49168354 0 0 1 0.54784495,4.8925035"/><path style="fill:none;stroke:#000;stroke-width:.0526099;stroke-linecap:round;stroke-linejoin:round;paint-order:fill markers stroke" id="path8253-2-1" d="M 5.2526409,4.7060789 A 2.380564,0.49168354 0 0 1 3.01243,5.1108321 2.380564,0.49168354 0 0 1 0.61081352,4.747701"/><path style="fill:none;stroke:#000;stroke-width:.0526099;stroke-linecap:round;stroke-linejoin:round;paint-order:fill markers stroke" id="path8253-2-1-8" d="M 5.2449441,3.4236035 A 2.380564,0.49168354 0 0 1 2.976585,3.8170625 2.380564,0.49168354 0 0 1 0.60852031,3.449517"/><path style="fill:none;stroke:#000;stroke-width:.05;stroke-linecap:butt;stroke-linejoin:miter;stroke-opacity:1;stroke-miterlimit:4;stroke-dasharray:none" id="path8335" d="m 5.2474513,3.423199 0.00646,1.2866518 z"/><path style="fill:none;stroke:#000;stroke-width:.05;stroke-linecap:butt;stroke-linejoin:miter;stroke-opacity:1;stroke-miterlimit:4;stroke-dasharray:none" id="path8339" d="m 4.4817487,3.7233518 -0.019344,0.041872 0.036115,0.034281 4.498e-4,1.1295116 -0.022688,0.055388 0.025458,-0.052271 -0.00257,-1.1301806 -0.034617,-0.036748 z"/><path style="fill:none;stroke:#000;stroke-width:.00835165;stroke-linecap:round;stroke-linejoin:round;stroke-miterlimit:4;stroke-dasharray:none;paint-order:fill markers stroke" id="path8341" d="m 17.131673,16.491327 c 0,-1.420813 -0.01569,-2.212423 -0.04419,-2.230041 -0.02431,-0.01502 -0.04419,-0.06281 -0.04419,-0.106186 0,-0.06359 0.07493,-0.09439 0.386699,-0.158956 0.710871,-0.147216 1.443306,-0.376577 1.878252,-0.588173 l 0.430893,-0.209624 v 2.258387 2.258387 l -0.09944,0.08894 c -0.322459,0.288429 -1.093264,0.580827 -2.126182,0.806548 l -0.381837,0.08344 z" transform="scale(0.26458333)"/><path style="fill:#000;stroke:#000;stroke-width:.00835165;stroke-linecap:round;stroke-linejoin:round;stroke-miterlimit:4;stroke-dasharray:none;paint-order:fill markers stroke;fill-opacity:1" id="path8343" d="m 17.171448,17.167895 c -0.0024,-0.820818 -0.01838,-1.840425 -0.03543,-2.265793 -0.01706,-0.425369 -0.02689,-0.779808 -0.02185,-0.787641 0.005,-0.0078 0.284491,-0.08095 0.621004,-0.162473 0.683419,-0.16557 1.280807,-0.366189 1.660192,-0.557539 0.139071,-0.07014 0.263367,-0.127532 0.276214,-0.127532 0.01285,0 0.02336,1.003301 0.02336,2.229557 v 2.229557 l -0.143631,0.107686 c -0.36654,0.274811 -1.105647,0.536768 -2.253903,0.798836 l -0.121534,0.02774 z" transform="scale(0.26458333)"/><path style="fill:none;stroke:#000;stroke-width:.05;stroke-linecap:butt;stroke-linejoin:miter;stroke-opacity:1;stroke-miterlimit:4;stroke-dasharray:none" id="path8345" d="m 4.290591,3.7209306 0.06946,0.064964 -0.053795,0.048369 0.012335,1.0970101 0.070442,0.075559 L 4.31492,4.9337387 4.303987,3.8492315 4.360469,3.7795525 Z"/><path style="fill:none;stroke:#000;stroke-width:.05;stroke-linecap:butt;stroke-linejoin:miter;stroke-opacity:1;stroke-miterlimit:4;stroke-dasharray:none" id="path8347" d="m 2.2186877,3.80606 -0.0616,0.043099 0.051839,0.066404 -0.00324,1.1155053 -0.052386,0.054422 0.056284,-0.061124 -0.00143,-1.1100303 -0.044398,-0.065798 z"/><path style="fill:none;stroke:#000;stroke-width:.05;stroke-linecap:butt;stroke-linejoin:miter;stroke-opacity:1;stroke-miterlimit:4;stroke-dasharray:none" id="path8349" d="m 2.0070842,3.7811101 0.045851,0.059708 -0.052788,0.054987 -7.303e-4,1.1114302 0.061158,0.081391 -0.060893,-0.080724 -0.00347,-1.113337 0.059368,-0.059155 z"/><path style="fill:none;stroke:#000;stroke-width:.05;stroke-linecap:butt;stroke-linejoin:miter;stroke-opacity:1;stroke-miterlimit:4;stroke-dasharray:none" id="path8351" d="m 0.67942414,3.5213763 0.0175964,0.080742 -0.0329573,0.035872 0.005776,1.0662319 0.0346526,0.1032505 -0.0348268,-0.1085951 -0.009178,-1.0657811 0.0455401,-0.031767 z"/><path style="fill:none;stroke:#000;stroke-width:.05;stroke-linecap:butt;stroke-linejoin:miter;stroke-opacity:1;stroke-miterlimit:4;stroke-dasharray:none" id="path8353" d="m 0.83552471,3.5852449 -0.0608416,0.036723 0.0336401,0.074952 0.004816,1.0693197 -0.0498046,0.038081 0.0530776,-0.038715 -0.008184,-1.0758202 -0.0417829,-0.066821 z"/><path style="fill:#000;stroke:#000;stroke-width:.05;stroke-linecap:butt;stroke-linejoin:round;stroke-opacity:1;stroke-miterlimit:4;stroke-dasharray:none;fill-opacity:1" id="path8357" d="m 0.6099457,3.4443683 0.001643,1.3055491 z"/><path style="fill:#000;fill-opacity:1;stroke:#000;stroke-width:.00104396;stroke-linecap:round;stroke-linejoin:round;stroke-miterlimit:4;stroke-dasharray:none;paint-order:fill markers stroke" id="path8359" d="m 2.4034529,13.587006 c -0.00203,-0.04633 -0.00292,-0.144242 -0.00196,-0.217573 l 0.00173,-0.133328 0.055243,0.03237 c 0.030384,0.0178 0.058972,0.03466 0.063529,0.03745 0.00625,0.0038 0.00181,0.0068 -0.018048,0.01187 -0.014484,0.0037 -0.027377,0.0085 -0.028652,0.01053 -0.00128,0.0021 0.010107,0.06036 0.025294,0.129546 0.021876,0.09966 0.026236,0.127452 0.02099,0.133774 -0.00638,0.0077 -0.107788,0.0796 -0.1122465,0.0796 -0.0012,0 -0.00385,-0.03791 -0.00588,-0.08424 z" transform="scale(0.26458333)"/><path style="fill:#000;fill-opacity:1;stroke:#000;stroke-width:.00104396;stroke-linecap:round;stroke-linejoin:round;stroke-miterlimit:4;stroke-dasharray:none;paint-order:fill markers stroke" id="path8361" d="m 2.4401614,17.912421 -0.034138,-0.02339 7.414e-4,-1.519175 7.414e-4,-1.519174 0.013179,1.472218 0.013179,1.472218 0.022543,0.06802 c 0.012398,0.03741 0.021497,0.06907 0.020218,0.07034 -0.00128,0.0013 -0.017686,-0.0082 -0.036462,-0.02106 z" transform="scale(0.26458333)"/><path style="fill:#000;fill-opacity:1;stroke:#000;stroke-width:.00835165;stroke-linecap:round;stroke-linejoin:round;stroke-miterlimit:4;stroke-dasharray:none;paint-order:fill markers stroke" id="path8363" d="M 7.0210756,19.006615 C 5.7484893,18.870259 4.3043745,18.605545 3.551833,18.370683 3.308765,18.294824 3.1020854,18.225337 3.092545,18.216269 c -0.00954,-0.0091 0.00989,-0.04931 0.043186,-0.08943 0.049822,-0.06003 0.057971,-0.441416 0.046057,-2.155534 -0.00796,-1.145428 -0.03262,-2.116565 -0.054796,-2.158081 -0.030158,-0.05646 -0.017791,-0.08754 0.049061,-0.12332 0.069681,-0.03729 0.1696498,-0.02245 0.4535522,0.06733 0.6826993,0.215899 2.2978526,0.495402 3.5903444,0.621311 0.1701476,0.01657 0.3233595,0.05205 0.3404706,0.07883 0.017112,0.02678 -0.0083,0.09064 -0.056469,0.141914 -0.085215,0.09071 -0.087249,0.151894 -0.075305,2.26565 l 0.012275,2.172424 -0.1325826,-0.0071 c -0.07292,-0.0039 -0.2021883,-0.01454 -0.2872621,-0.02366 z" transform="scale(0.26458333)"/><path style="fill:#000;fill-opacity:1;stroke:#000;stroke-width:.00835165;stroke-linecap:round;stroke-linejoin:round;stroke-miterlimit:4;stroke-dasharray:none;paint-order:fill markers stroke" id="path8365" d="m 9.5843377,19.170426 c -0.4496757,-0.01838 -0.887198,-0.03595 -0.9722718,-0.03905 l -0.1546796,-0.0056 0.012273,-2.171418 c 0.010628,-1.880425 0.00329,-2.185126 -0.054752,-2.27371 -0.052228,-0.07971 -0.054937,-0.110118 -0.012273,-0.137742 0.030113,-0.0195 0.9596272,-0.0289 2.0655867,-0.0209 2.327036,0.01683 3.559037,-0.0406 5.164939,-0.240802 0.39167,-0.04883 0.560188,-0.0546 0.594411,-0.02038 0.03422,0.03422 0.03273,0.0628 -0.0053,0.100797 -0.03975,0.03975 -0.05297,0.573723 -0.05276,2.132369 2.21e-4,1.769135 0.01024,2.098447 0.06708,2.207445 0.03674,0.07046 0.06148,0.13247 0.05497,0.1378 -0.01588,0.013 -1.095515,0.141406 -1.647023,0.195892 -1.292339,0.127677 -3.683218,0.191618 -5.0602338,0.13533 z" transform="scale(0.26458333)"/><path id="path8369" style="fill:#000;fill-opacity:1;stroke:#000;stroke-width:.0499999;stroke-linecap:round;stroke-linejoin:round;stroke-miterlimit:4;stroke-dasharray:none;paint-order:fill markers stroke" d="M 2.9475111,3.2926267 A 0.11380142,0.07033315 43.2 0 1 2.8164071,3.2659949 0.11380142,0.07033315 43.2 0 1 2.7815958,3.1368217 0.11380142,0.07033315 43.2 0 1 2.9127,3.1634536 0.11380142,0.07033315 43.2 0 1 2.9475111,3.2926267 Z M 0.31059139,0.78397477 2.8792095,3.1960676 2.8480374,3.229262 0.27941936,0.81716912 Z"/><path id="path8369-9" style="fill:#000;fill-opacity:1;stroke:#000;stroke-width:.0499999;stroke-linecap:round;stroke-linejoin:round;stroke-miterlimit:4;stroke-dasharray:none;paint-order:fill markers stroke" d="m 3.3203365,3.2298699 a 0.07033315,0.11380142 30 0 1 -0.00401,-0.1337215 0.07033315,0.11380142 30 0 1 0.1178109,-0.063388 0.07033315,0.11380142 30 0 1 0.00401,0.1337215 0.07033315,0.11380142 30 0 1 -0.117811,0.063388 z M 5.1605642,0.08976761 3.3987476,3.1413234 3.3593123,3.1185554 5.1211289,0.06699961 Z"/></g></svg>