<svg xmlns="http://www.w3.org/2000/svg" xmlns:svg="http://www.w3.org/2000/svg" id="svg8" width="22" height="22" version="1.1" viewBox="0 0 5.821 5.821"><metadata id="metadata5"/><g id="layer1"><path id="rect1153" style="fill:#000;fill-opacity:1;stroke-width:.394158;stroke-linecap:square;stroke-linejoin:round;paint-order:fill markers stroke" d="m 1.4178523,2.4046825 c -0.3273397,0 -0.59086567,0.2635259 -0.59086567,0.5908655 v 2.215746 c 0,0.3273396 0.26352597,0.5908655 0.59086567,0.5908655 h 2.9543279 c 0.3273395,0 0.5908655,-0.2635259 0.5908655,-0.5908655 V 2.995548 c 0,-0.3273396 -0.263526,-0.5908655 -0.5908655,-0.5908655 z M 2.8880919,3.4369662 A 0.44314925,0.44314925 0 0 1 3.331241,3.8801155 0.44314925,0.44314925 0 0 1 3.119476,4.2574845 V 5.1501302 H 2.6763268 V 4.269025 A 0.44314925,0.44314925 0 0 1 2.4449428,3.8801155 0.44314925,0.44314925 0 0 1 2.8880919,3.4369662 Z"/><path id="path1186" style="fill:#000;fill-opacity:1;stroke-width:.361259;stroke-linecap:square;stroke-linejoin:round;paint-order:fill markers stroke" d="M 2.8889578,0.9133877 A 1.4801004,1.4801004 0 0 0 1.9639993,1.2428645 1.4801004,1.4801004 0 0 0 1.4152559,2.4188255 H 1.887256 A 1.0084131,1.0084131 0 0 1 2.2605861,1.6098474 1.0084131,1.0084131 0 0 1 2.8976132,1.3848107 1.0084131,1.0084131 0 0 1 3.6788944,1.7587178 1.0084131,1.0084131 0 0 1 3.9033541,2.4188255 h 0.471423 A 1.4801004,1.4801004 0 0 0 4.0453004,1.462131 1.4801004,1.4801004 0 0 0 2.8889578,0.9133877 Z"/></g></svg>