<svg xmlns="http://www.w3.org/2000/svg" xmlns:svg="http://www.w3.org/2000/svg" id="svg8" width="22" height="22" version="1.1" viewBox="0 0 5.821 5.821"><defs id="defs2"><marker style="overflow:visible" id="Arrow1Mstart" orient="auto" refX="0" refY="0"><path transform="scale(0.4) translate(10,0)" style="fill-rule:evenodd;stroke:#000;stroke-width:1pt;stroke-opacity:1;fill:#000;fill-opacity:1" id="path4002" d="M 0.0,0.0 L 5.0,-5.0 L -12.5,0.0 L 5.0,5.0 L 0.0,0.0 z"/></marker><marker style="overflow:visible" id="marker11321" orient="auto" refX="0" refY="0"><path transform="scale(0.8) rotate(180) translate(12.5,0)" style="fill-rule:evenodd;stroke:#000;stroke-width:1pt;stroke-opacity:1;fill:#000;fill-opacity:1" id="path11319" d="M 0.0,0.0 L 5.0,-5.0 L -12.5,0.0 L 5.0,5.0 L 0.0,0.0 z"/></marker><marker style="overflow:visible" id="marker11221" orient="auto" refX="0" refY="0"><path transform="scale(0.8) translate(12.5,0)" style="fill-rule:evenodd;stroke:#000;stroke-width:1pt;stroke-opacity:1;fill:#000;fill-opacity:1" id="path11219" d="M 0.0,0.0 L 5.0,-5.0 L -12.5,0.0 L 5.0,5.0 L 0.0,0.0 z"/></marker><marker style="overflow:visible" id="marker11125" orient="auto" refX="0" refY="0"><path transform="scale(0.8) rotate(180) translate(12.5,0)" style="fill-rule:evenodd;stroke:#000;stroke-width:1pt;stroke-opacity:1;fill:#000;fill-opacity:1" id="path11123" d="M 0.0,0.0 L 5.0,-5.0 L -12.5,0.0 L 5.0,5.0 L 0.0,0.0 z"/></marker><marker style="overflow:visible" id="Arrow1Lend" orient="auto" refX="0" refY="0"><path transform="scale(0.8) rotate(180) translate(12.5,0)" style="fill-rule:evenodd;stroke:#000;stroke-width:1pt;stroke-opacity:1;fill:#000;fill-opacity:1" id="path3999" d="M 0.0,0.0 L 5.0,-5.0 L -12.5,0.0 L 5.0,5.0 L 0.0,0.0 z"/></marker><marker style="overflow:visible" id="marker11005" orient="auto" refX="0" refY="0"><path transform="scale(0.8) translate(12.5,0)" style="fill-rule:evenodd;stroke:#000;stroke-width:1pt;stroke-opacity:1;fill:#000;fill-opacity:1" id="path11003" d="M 0.0,0.0 L 5.0,-5.0 L -12.5,0.0 L 5.0,5.0 L 0.0,0.0 z"/></marker><marker style="overflow:visible" id="marker10977" orient="auto" refX="0" refY="0"><path transform="scale(0.8) translate(12.5,0)" style="fill-rule:evenodd;stroke:#000;stroke-width:1pt;stroke-opacity:1;fill:#000;fill-opacity:1" id="path10975" d="M 0.0,0.0 L 5.0,-5.0 L -12.5,0.0 L 5.0,5.0 L 0.0,0.0 z"/></marker><marker style="overflow:visible" id="Arrow1Lstart" orient="auto" refX="0" refY="0"><path transform="scale(0.8) translate(12.5,0)" style="fill-rule:evenodd;stroke:#000;stroke-width:1pt;stroke-opacity:1;fill:#000;fill-opacity:1" id="path3996" d="M 0.0,0.0 L 5.0,-5.0 L -12.5,0.0 L 5.0,5.0 L 0.0,0.0 z"/></marker><marker style="overflow:visible" id="Arrow1Mstart-0" orient="auto" refX="0" refY="0"><path transform="matrix(0.4,0,0,0.4,4,0)" style="fill:#000;fill-opacity:1;fill-rule:evenodd;stroke:#000;stroke-width:1pt;stroke-opacity:1" id="path4002-2" d="M 0,0 5,-5 -12.5,0 5,5 Z"/></marker></defs><metadata id="metadata5"/><g id="layer1"><path style="fill:none;stroke:#000;stroke-width:.926042;stroke-linecap:square;stroke-linejoin:round;stroke-miterlimit:4;stroke-dasharray:none;paint-order:fill markers stroke" id="path10953-3" d="M -4.2444166,-1.3470343 A 1.5875,1.5875 0 0 1 -5.5502091,-3.0487764 1.5875,1.5875 0 0 1 -3.96875,-4.4979166" transform="scale(-1)"/><path style="fill:#000;stroke-width:.529167;stroke-linecap:square;stroke-linejoin:round;stroke-miterlimit:4;stroke-dasharray:none;paint-order:fill markers stroke" id="path966" d="M 3.6960674,1.3672987 2.2506031,2.2568071 2.2029984,0.56024401 Z" transform="matrix(1.2233435,0,-0.01982899,1.6375018,-0.98871873,-0.91740058)"/><path style="fill:none;stroke:#000;stroke-width:.926042;stroke-linecap:square;stroke-linejoin:round;stroke-miterlimit:4;stroke-dasharray:none;paint-order:fill markers stroke" id="path10953-3-5" d="M 1.5875,4.365625 A 1.5875,1.5875 0 0 1 0.28170752,2.663883 1.5875,1.5875 0 0 1 1.8631666,1.2147428"/><path style="fill:#000;stroke-width:.529167;stroke-linecap:square;stroke-linejoin:round;stroke-miterlimit:4;stroke-dasharray:none;paint-order:fill markers stroke" id="path966-6" d="M 3.6960674,1.3672987 2.2506031,2.2568071 2.2029984,0.56024401 Z" transform="matrix(-1.2233435,0,0.01982899,1.6375018,6.8095521,2.2589626)"/></g></svg>